# xmcd
#
# Track frame offsets: 
#        150
#        11944
#        26101
#        38451
#        50400
#        60649
#        71469
#        85230
#        99895
#        111093
#        123922
#        131897
#        144895
#        157437
#        171696
#        184323
#        193797
#        203202
#        218230
#        229917
#
# Disc length: 3216 seconds
#
# Revision: 1
# Processed by: cddbd v1.5PL3 Copyright (c) Steve Scherf et al.
# Submitted via: ExactAudioCopy v0.90b4
#
DISCID=2b0c8e14
DTITLE=George Jones - Jones by George! - Disc 2
DYEAR=1900
DGENRE=Country
TTITLE0=She Thinks I Still Care
TTITLE1=A Good Year For The Roses
TTITLE2=Blues Side Of Lonesome
TTITLE3=They'll Never Take Her Love From Me
TTITLE4=Walk Through This World With Me
TTITLE5=Tender Years
TTITLE6=Hearts In My Dream
TTITLE7=It's Funny What A Fool Will Do
TTITLE8=Tarnished Angel
TTITLE9=When I Wake Up From Dreaming
TTITLE10=Yes I Know Why
TTITLE11=Things Have Gone To Pieces
TTITLE12=Brothers Of A Bottle
TTITLE13=Open Pit Mine
TTITLE14=The Selfishness In Man
TTITLE15=Old Brush Arbors
TTITLE16=World's Worst Lover
TTITLE17=On The Banks Of The Ponchertrain
TTITLE18=You Comb Her Hair
TTITLE19=There's No Justice
EXTD=
EXTT0=
EXTT1=
EXTT2=
EXTT3=
EXTT4=
EXTT5=
EXTT6=
EXTT7=
EXTT8=
EXTT9=
EXTT10=
EXTT11=
EXTT12=
EXTT13=
EXTT14=
EXTT15=
EXTT16=
EXTT17=
EXTT18=
EXTT19=
PLAYORDER=
